<?xml version="1.0" encoding="utf-8"?>
<!-- Svg Vector Icons : http://www.onlinewebfonts.com/icon -->
<!DOCTYPE svg PUBLIC "-//W3C//DTD SVG 1.1//EN" "http://www.w3.org/Graphics/SVG/1.1/DTD/svg11.dtd">
<svg version="1.1" xmlns="http://www.w3.org/2000/svg" xmlns:xlink="http://www.w3.org/1999/xlink" x="0px" y="0px" viewBox="0 0 1000 1000" enable-background="new 0 0 1000 1000" xml:space="preserve">
<metadata> Svg Vector Icons : http://www.onlinewebfonts.com/icon </metadata>
<g><g><circle cx="491.8" cy="74.6" r="64.6"/><circle cx="910" cy="922.8" r="67.2"/><path d="M177.2,454.2l-77.2-4.3c-23.8-1.4-43.9,16.9-45.3,40.4c-1.4,23.6,16.9,43.9,40.4,45.3l67.4,3.9l259.8,144.2c6.5,3.7,13.6,5.5,20.7,5.5c9.3,0,18.5-3,26.2-8.9c13.6-10.6,19.5-28,15.2-44.7c0,0-33.3-129-33.5-129.6c0-0.4,7.7,4.9,8.7,6.1c2.2,3,3.9,6.9,5.9,10.2c2,3.5,4.3,6.9,6.5,10.2c6.3,9.8,12.6,19.7,18.7,29.5c16.9,26.4,33.7,52.8,50.6,79.4c24.6,38.4,49,77,73.5,115.4c0,0.2,0.2,0.2,0.2,0.4l95.3,200.1c7.3,15.4,22.7,24.4,38.8,24.4c6.1,0,12.4-1.4,18.5-4.3c21.3-10.2,30.5-35.7,20.3-57.1l-96.5-202.5c-0.8-1.6-1.6-3-2.6-4.7L546.3,489.1c1-3,3.7-115.2,6.7-179.1c24.4,57.1,60.5,132.4,105.2,200.5c6.1,9.3,16.5,14.6,27,14.6c6.1,0,12.2-1.6,17.7-5.3c14.8-9.8,19.1-29.7,9.3-44.5C632,352.8,579,199.9,578.4,198.5c-3.3-9.1-10.2-16-18.5-19.3c0-0.2,0-0.2,0-0.2c-80.2-29.2-163.5-47.9-245.8-70.3c-61.9-16.9-123.9-33.7-186-50.4c-21.7-6.1-43.3-12-64.8-17.9C46.2,35.8,28.5,45.9,23.9,63c-4.7,17.1,5.5,34.7,22.5,39.4l288.8,78.4c0.8,88.6,24.2,175.5,23.8,264.4c0,15.4-2.8,31.5,0.2,46.9c1.4,6.9,3.5,13.8,5.3,20.5c4.1,15.8,8.1,31.7,12.2,47.3l-181-100.5C190,456.4,183.7,454.6,177.2,454.2z"/></g><g></g><g></g><g></g><g></g><g></g><g></g><g></g><g></g><g></g><g></g><g></g><g></g><g></g><g></g><g></g></g>
</svg>